<svg width="24" height="25" viewBox="0 0 24 25" fill="none" xmlns="http://www.w3.org/2000/svg">
<g id="ChartLineUp">
<path id="Vector" d="M21.75 20C21.75 20.1989 21.671 20.3897 21.5303 20.5303C21.3897 20.671 21.1989 20.75 21 20.75H3C2.80109 20.75 2.61032 20.671 2.46967 20.5303C2.32902 20.3897 2.25 20.1989 2.25 20V5C2.25 4.80109 2.32902 4.61032 2.46967 4.46967C2.61032 4.32902 2.80109 4.25 3 4.25C3.19891 4.25 3.38968 4.32902 3.53033 4.46967C3.67098 4.61032 3.75 4.80109 3.75 5V15.1897L8.46937 10.4694C8.53903 10.3996 8.62175 10.3443 8.71279 10.3066C8.80384 10.2688 8.90144 10.2494 9 10.2494C9.09856 10.2494 9.19616 10.2688 9.28721 10.3066C9.37825 10.3443 9.46097 10.3996 9.53063 10.4694L12 12.9397L16.9397 8H15C14.8011 8 14.6103 7.92098 14.4697 7.78033C14.329 7.63968 14.25 7.44891 14.25 7.25C14.25 7.05109 14.329 6.86032 14.4697 6.71967C14.6103 6.57902 14.8011 6.5 15 6.5H18.75C18.9489 6.5 19.1397 6.57902 19.2803 6.71967C19.421 6.86032 19.5 7.05109 19.5 7.25V11C19.5 11.1989 19.421 11.3897 19.2803 11.5303C19.1397 11.671 18.9489 11.75 18.75 11.75C18.5511 11.75 18.3603 11.671 18.2197 11.5303C18.079 11.3897 18 11.1989 18 11V9.06031L12.5306 14.5306C12.461 14.6004 12.3783 14.6557 12.2872 14.6934C12.1962 14.7312 12.0986 14.7506 12 14.7506C11.9014 14.7506 11.8038 14.7312 11.7128 14.6934C11.6217 14.6557 11.539 14.6004 11.4694 14.5306L9 12.0603L3.75 17.3103V19.25H21C21.1989 19.25 21.3897 19.329 21.5303 19.4697C21.671 19.6103 21.75 19.8011 21.75 20Z" fill="black"/>
</g>
</svg>
