<svg width="16" height="16" viewBox="0 0 16 16" fill="none" xmlns="http://www.w3.org/2000/svg">
<mask id="path-1-inside-1_954_7441" fill="white">
<path d="M14.667 4.83301H10.667C10.3937 4.83301 10.167 4.60634 10.167 4.33301C10.167 4.05967 10.3937 3.83301 10.667 3.83301H14.667C14.9403 3.83301 15.167 4.05967 15.167 4.33301C15.167 4.60634 14.9403 4.83301 14.667 4.83301Z"/>
</mask>
<path d="M14.667 4.83301H10.667C10.3937 4.83301 10.167 4.60634 10.167 4.33301C10.167 4.05967 10.3937 3.83301 10.667 3.83301H14.667C14.9403 3.83301 15.167 4.05967 15.167 4.33301C15.167 4.60634 14.9403 4.83301 14.667 4.83301Z" fill="#525252"/>
<path d="M14.667 3.83301H10.667V5.83301H14.667V3.83301ZM10.667 3.83301C10.9459 3.83301 11.167 4.05406 11.167 4.33301H9.16699C9.16699 5.15863 9.84137 5.83301 10.667 5.83301V3.83301ZM11.167 4.33301C11.167 4.61196 10.9459 4.83301 10.667 4.83301V2.83301C9.84137 2.83301 9.16699 3.50739 9.16699 4.33301H11.167ZM10.667 4.83301H14.667V2.83301H10.667V4.83301ZM14.667 4.83301C14.388 4.83301 14.167 4.61196 14.167 4.33301H16.167C16.167 3.50739 15.4926 2.83301 14.667 2.83301V4.83301ZM14.167 4.33301C14.167 4.05406 14.388 3.83301 14.667 3.83301V5.83301C15.4926 5.83301 16.167 5.15863 16.167 4.33301H14.167Z" fill="#7A7A7A" mask="url(#path-1-inside-1_954_7441)"/>
<mask id="path-3-inside-2_954_7441" fill="white">
<path d="M3.99967 4.83301H1.33301C1.05967 4.83301 0.833008 4.60634 0.833008 4.33301C0.833008 4.05967 1.05967 3.83301 1.33301 3.83301H3.99967C4.27301 3.83301 4.49967 4.05967 4.49967 4.33301C4.49967 4.60634 4.27301 4.83301 3.99967 4.83301Z"/>
</mask>
<path d="M3.99967 4.83301H1.33301C1.05967 4.83301 0.833008 4.60634 0.833008 4.33301C0.833008 4.05967 1.05967 3.83301 1.33301 3.83301H3.99967C4.27301 3.83301 4.49967 4.05967 4.49967 4.33301C4.49967 4.60634 4.27301 4.83301 3.99967 4.83301Z" fill="#525252"/>
<path d="M3.99967 3.83301H1.33301V5.83301H3.99967V3.83301ZM1.33301 3.83301C1.61196 3.83301 1.83301 4.05406 1.83301 4.33301H-0.166992C-0.166992 5.15863 0.50739 5.83301 1.33301 5.83301V3.83301ZM1.83301 4.33301C1.83301 4.61196 1.61196 4.83301 1.33301 4.83301V2.83301C0.50739 2.83301 -0.166992 3.50739 -0.166992 4.33301H1.83301ZM1.33301 4.83301H3.99967V2.83301H1.33301V4.83301ZM3.99967 4.83301C3.72072 4.83301 3.49967 4.61196 3.49967 4.33301H5.49967C5.49967 3.50739 4.82529 2.83301 3.99967 2.83301V4.83301ZM3.49967 4.33301C3.49967 4.05406 3.72072 3.83301 3.99967 3.83301V5.83301C4.82529 5.83301 5.49967 5.15863 5.49967 4.33301H3.49967Z" fill="#7A7A7A" mask="url(#path-3-inside-2_954_7441)"/>
<path d="M6.66634 7.16667C5.10634 7.16667 3.83301 5.89333 3.83301 4.33333C3.83301 2.77333 5.10634 1.5 6.66634 1.5C8.22634 1.5 9.49967 2.77333 9.49967 4.33333C9.49967 5.89333 8.22634 7.16667 6.66634 7.16667ZM6.66634 2.5C5.65301 2.5 4.83301 3.32 4.83301 4.33333C4.83301 5.34667 5.65301 6.16667 6.66634 6.16667C7.67967 6.16667 8.49967 5.34667 8.49967 4.33333C8.49967 3.32 7.67967 2.5 6.66634 2.5Z" fill="#525252"/>
<path d="M14.6667 12.167H12C11.7267 12.167 11.5 11.9403 11.5 11.667C11.5 11.3937 11.7267 11.167 12 11.167H14.6667C14.94 11.167 15.1667 11.3937 15.1667 11.667C15.1667 11.9403 14.94 12.167 14.6667 12.167Z" fill="#525252"/>
<path d="M5.33301 12.167H1.33301C1.05967 12.167 0.833008 11.9403 0.833008 11.667C0.833008 11.3937 1.05967 11.167 1.33301 11.167H5.33301C5.60634 11.167 5.83301 11.3937 5.83301 11.667C5.83301 11.9403 5.60634 12.167 5.33301 12.167Z" fill="#525252"/>
<path d="M9.33333 14.4997C7.77333 14.4997 6.5 13.2263 6.5 11.6663C6.5 10.1063 7.77333 8.83301 9.33333 8.83301C10.8933 8.83301 12.1667 10.1063 12.1667 11.6663C12.1667 13.2263 10.8933 14.4997 9.33333 14.4997ZM9.33333 9.83301C8.32 9.83301 7.5 10.653 7.5 11.6663C7.5 12.6797 8.32 13.4997 9.33333 13.4997C10.3467 13.4997 11.1667 12.6797 11.1667 11.6663C11.1667 10.653 10.3467 9.83301 9.33333 9.83301Z" fill="#525252"/>
</svg>
