<svg width="24" height="25" viewBox="0 0 24 25" fill="none" xmlns="http://www.w3.org/2000/svg">
<g id="Scan">
<path id="Vector" d="M21 4.25V8C21 8.19891 20.921 8.38968 20.7803 8.53033C20.6397 8.67098 20.4489 8.75 20.25 8.75C20.0511 8.75 19.8603 8.67098 19.7197 8.53033C19.579 8.38968 19.5 8.19891 19.5 8V5H16.5C16.3011 5 16.1103 4.92098 15.9697 4.78033C15.829 4.63968 15.75 4.44891 15.75 4.25C15.75 4.05109 15.829 3.86032 15.9697 3.71967C16.1103 3.57902 16.3011 3.5 16.5 3.5H20.25C20.4489 3.5 20.6397 3.57902 20.7803 3.71967C20.921 3.86032 21 4.05109 21 4.25ZM7.5 20H4.5V17C4.5 16.8011 4.42098 16.6103 4.28033 16.4697C4.13968 16.329 3.94891 16.25 3.75 16.25C3.55109 16.25 3.36032 16.329 3.21967 16.4697C3.07902 16.6103 3 16.8011 3 17V20.75C3 20.9489 3.07902 21.1397 3.21967 21.2803C3.36032 21.421 3.55109 21.5 3.75 21.5H7.5C7.69891 21.5 7.88968 21.421 8.03033 21.2803C8.17098 21.1397 8.25 20.9489 8.25 20.75C8.25 20.5511 8.17098 20.3603 8.03033 20.2197C7.88968 20.079 7.69891 20 7.5 20ZM20.25 16.25C20.0511 16.25 19.8603 16.329 19.7197 16.4697C19.579 16.6103 19.5 16.8011 19.5 17V20H16.5C16.3011 20 16.1103 20.079 15.9697 20.2197C15.829 20.3603 15.75 20.5511 15.75 20.75C15.75 20.9489 15.829 21.1397 15.9697 21.2803C16.1103 21.421 16.3011 21.5 16.5 21.5H20.25C20.4489 21.5 20.6397 21.421 20.7803 21.2803C20.921 21.1397 21 20.9489 21 20.75V17C21 16.8011 20.921 16.6103 20.7803 16.4697C20.6397 16.329 20.4489 16.25 20.25 16.25ZM3.75 8.75C3.94891 8.75 4.13968 8.67098 4.28033 8.53033C4.42098 8.38968 4.5 8.19891 4.5 8V5H7.5C7.69891 5 7.88968 4.92098 8.03033 4.78033C8.17098 4.63968 8.25 4.44891 8.25 4.25C8.25 4.05109 8.17098 3.86032 8.03033 3.71967C7.88968 3.57902 7.69891 3.5 7.5 3.5H3.75C3.55109 3.5 3.36032 3.57902 3.21967 3.71967C3.07902 3.86032 3 4.05109 3 4.25V8C3 8.19891 3.07902 8.38968 3.21967 8.53033C3.36032 8.67098 3.55109 8.75 3.75 8.75ZM7.5 7.25H16.5C16.6989 7.25 16.8897 7.32902 17.0303 7.46967C17.171 7.61032 17.25 7.80109 17.25 8V17C17.25 17.1989 17.171 17.3897 17.0303 17.5303C16.8897 17.671 16.6989 17.75 16.5 17.75H7.5C7.30109 17.75 7.11032 17.671 6.96967 17.5303C6.82902 17.3897 6.75 17.1989 6.75 17V8C6.75 7.80109 6.82902 7.61032 6.96967 7.46967C7.11032 7.32902 7.30109 7.25 7.5 7.25ZM8.25 16.25H15.75V8.75H8.25V16.25Z" fill="#525252"/>
</g>
</svg>
